<mxfile host="app.diagrams.net" modified="2024-01-08T12:31:31.527Z" agent="Mozilla/5.0 (Windows NT 10.0; Win64; x64) AppleWebKit/537.36 (KHTML, like Gecko) Chrome/119.0.0.0 Safari/537.36 OPR/105.0.0.0" etag="9xO-E0Q7o_1xAN62L4YY" version="22.1.16" type="onedrive">
  <diagram name="Page-1" id="NsECWa1tj2XgsYATfrvR">
    <mxGraphModel grid="1" page="0" gridSize="10" guides="1" tooltips="1" connect="1" arrows="1" fold="1" pageScale="1" pageWidth="850" pageHeight="1100" math="0" shadow="0">
      <root>
        <mxCell id="0" />
        <mxCell id="1" parent="0" />
        <mxCell id="O36wPDnIYT0GBF3O5MKv-1" value="Nhân viên tiếp nhận hồ sơ" style="rounded=0;whiteSpace=wrap;html=1;" vertex="1" parent="1">
          <mxGeometry x="200" y="440" width="200" height="80" as="geometry" />
        </mxCell>
        <mxCell id="O36wPDnIYT0GBF3O5MKv-2" value="Thiết bị nhập" style="rounded=0;whiteSpace=wrap;html=1;" vertex="1" parent="1">
          <mxGeometry x="-50" y="600" width="160" height="80" as="geometry" />
        </mxCell>
        <mxCell id="O36wPDnIYT0GBF3O5MKv-3" value="Thiết bị xuất" style="rounded=0;whiteSpace=wrap;html=1;" vertex="1" parent="1">
          <mxGeometry x="490" y="600" width="160" height="80" as="geometry" />
        </mxCell>
        <mxCell id="O36wPDnIYT0GBF3O5MKv-4" value="CSDL" style="shape=partialRectangle;whiteSpace=wrap;html=1;left=0;right=0;fillColor=none;strokeWidth=2;" vertex="1" parent="1">
          <mxGeometry x="201.25" y="760" width="197.5" height="80" as="geometry" />
        </mxCell>
        <mxCell id="O36wPDnIYT0GBF3O5MKv-6" value="Tiếp nhận hồ sơ giảng viên" style="ellipse;whiteSpace=wrap;html=1;" vertex="1" parent="1">
          <mxGeometry x="202.5" y="595" width="195" height="90" as="geometry" />
        </mxCell>
        <mxCell id="s23sjowIf52fguQBvhUC-3" value="D1" style="endArrow=classic;html=1;rounded=0;exitX=0.25;exitY=1;exitDx=0;exitDy=0;entryX=0.244;entryY=0.044;entryDx=0;entryDy=0;entryPerimeter=0;" edge="1" parent="1" source="O36wPDnIYT0GBF3O5MKv-1" target="O36wPDnIYT0GBF3O5MKv-6">
          <mxGeometry width="50" height="50" relative="1" as="geometry">
            <mxPoint x="280" y="780" as="sourcePoint" />
            <mxPoint x="260" y="590" as="targetPoint" />
          </mxGeometry>
        </mxCell>
        <mxCell id="s23sjowIf52fguQBvhUC-6" value="D1: Thông tin của hồ sơ giảng viên: Họ và tên, ngày sinh, địa chỉ, điện thoại, bộ phận, học vị.&lt;br&gt;D2: Không có&lt;br&gt;D3: Danh sách 5 loại học vị, 4 bộ phận và 2 loại học hàm&lt;br&gt;D4: D1&lt;br&gt;D5: D4&lt;br&gt;D6: Không có&lt;br&gt;&lt;br&gt;&lt;b&gt;&lt;font style=&quot;--darkreader-inline-color: #ff6161;&quot; data-darkreader-inline-color=&quot;&quot; color=&quot;#ff6666&quot;&gt;Thuật toán xử lý:&lt;br&gt;&lt;/font&gt;&lt;/b&gt;&lt;u&gt;Bước 1:&lt;/u&gt;&amp;nbsp;Kết nối dữ liệu.&lt;br&gt;&lt;u&gt;Bước 2:&lt;/u&gt;&amp;nbsp;Nhận D1 từ nhân viên tiếp nhận hồ sơ giảng viên.&lt;br&gt;&lt;u&gt;Bước 3:&lt;/u&gt;&amp;nbsp;Đọc D3 từ CSDL&lt;br&gt;&lt;u&gt;Bước 4:&lt;/u&gt;&amp;nbsp;Kiểm tra các loại học vị, bộ phận và học hàm xem có trùng khớp với quy định hay không.&lt;br&gt;&lt;u&gt;Bước 5:&lt;/u&gt;&amp;nbsp;Nếu không thỏa các quy định trên thì tới bước&amp;nbsp;&lt;br&gt;&lt;u&gt;Bước 6:&lt;/u&gt;&amp;nbsp;Lưu D4 xuống CSDL.&lt;br&gt;&lt;u&gt;Bước 7:&lt;/u&gt;&amp;nbsp;Xuất D5 ra máy in.&lt;br&gt;&lt;u&gt;Bước 8:&lt;/u&gt;&amp;nbsp;Đóng kết nối CSDL.&lt;br&gt;&lt;u&gt;Bước 9:&lt;/u&gt;&amp;nbsp;Kết thúc." style="strokeWidth=1;shadow=0;dashed=0;align=center;html=1;shape=mxgraph.mockup.text.textBox;fontColor=#666666;align=left;fontSize=17;spacingLeft=4;spacingTop=-3;whiteSpace=wrap;strokeColor=#666666;mainText=" vertex="1" parent="1">
          <mxGeometry y="880" width="610" height="390" as="geometry" />
        </mxCell>
        <mxCell id="s23sjowIf52fguQBvhUC-7" value="D6" style="endArrow=classic;html=1;rounded=0;exitX=0.25;exitY=1;exitDx=0;exitDy=0;entryX=0.244;entryY=0.044;entryDx=0;entryDy=0;entryPerimeter=0;dashed=1;" edge="1" parent="1">
          <mxGeometry x="0.0127" width="50" height="50" relative="1" as="geometry">
            <mxPoint x="350" y="599" as="sourcePoint" />
            <mxPoint x="350" y="520" as="targetPoint" />
            <mxPoint as="offset" />
          </mxGeometry>
        </mxCell>
        <mxCell id="s23sjowIf52fguQBvhUC-8" value="D2" style="endArrow=classic;html=1;rounded=0;exitX=1;exitY=0.25;exitDx=0;exitDy=0;entryX=0.033;entryY=0.289;entryDx=0;entryDy=0;entryPerimeter=0;strokeColor=default;dashed=1;" edge="1" parent="1">
          <mxGeometry width="50" height="50" relative="1" as="geometry">
            <mxPoint x="110" y="639.5" as="sourcePoint" />
            <mxPoint x="198.93499999999995" y="640.51" as="targetPoint" />
          </mxGeometry>
        </mxCell>
        <mxCell id="s23sjowIf52fguQBvhUC-9" value="D4" style="endArrow=classic;html=1;rounded=0;exitX=0.25;exitY=1;exitDx=0;exitDy=0;entryX=0.244;entryY=0.044;entryDx=0;entryDy=0;entryPerimeter=0;" edge="1" parent="1">
          <mxGeometry width="50" height="50" relative="1" as="geometry">
            <mxPoint x="350" y="680" as="sourcePoint" />
            <mxPoint x="350" y="759" as="targetPoint" />
          </mxGeometry>
        </mxCell>
        <mxCell id="s23sjowIf52fguQBvhUC-10" value="D3" style="endArrow=classic;html=1;rounded=0;exitX=0.25;exitY=1;exitDx=0;exitDy=0;entryX=0.244;entryY=0.044;entryDx=0;entryDy=0;entryPerimeter=0;" edge="1" parent="1">
          <mxGeometry x="0.0127" width="50" height="50" relative="1" as="geometry">
            <mxPoint x="250" y="759" as="sourcePoint" />
            <mxPoint x="250" y="680" as="targetPoint" />
            <mxPoint as="offset" />
          </mxGeometry>
        </mxCell>
        <mxCell id="s23sjowIf52fguQBvhUC-11" value="D5" style="endArrow=classic;html=1;rounded=0;exitX=1;exitY=0.25;exitDx=0;exitDy=0;entryX=0.033;entryY=0.289;entryDx=0;entryDy=0;entryPerimeter=0;strokeColor=default;" edge="1" parent="1">
          <mxGeometry width="50" height="50" relative="1" as="geometry">
            <mxPoint x="400" y="639.49" as="sourcePoint" />
            <mxPoint x="488.93499999999995" y="640.5" as="targetPoint" />
          </mxGeometry>
        </mxCell>
      </root>
    </mxGraphModel>
  </diagram>
</mxfile>
